FILE "Last Hope (2007)(NG DEV.TEAM).img" BINARY
  TRACK 01 MODE1/2352
    INDEX 01 00:00:00
  TRACK 02 AUDIO
    PREGAP 00:02:00
    INDEX 01 01:25:46
  TRACK 03 AUDIO
    INDEX 00 03:21:11
    INDEX 01 03:23:11
  TRACK 04 AUDIO
    INDEX 00 06:30:65
    INDEX 01 06:32:65
  TRACK 05 AUDIO
    INDEX 00 09:13:37
    INDEX 01 09:15:37
  TRACK 06 AUDIO
    INDEX 00 11:44:00
    INDEX 01 11:46:00
  TRACK 07 AUDIO
    INDEX 00 15:00:13
    INDEX 01 15:02:13
  TRACK 08 AUDIO
    INDEX 00 17:37:23
    INDEX 01 17:39:23
  TRACK 09 AUDIO
    INDEX 00 20:04:39
    INDEX 01 20:06:39
  TRACK 10 AUDIO
    INDEX 00 22:37:72
    INDEX 01 22:39:72
